# This file uses centimeters as units for non-parametric coordinates.

mtllib incline.mtl
g default
v -259.082757 72.150314 1050.461068
v 240.917243 72.150314 1050.461068
v -259.082757 0.000000 -49.538932
v 240.917243 0.000000 -49.538932
vt 0.000000 0.000000
vt 0.454545 0.000000
vt 0.000000 1.000000
vt 0.454545 1.000000
vn 0.000000 0.997856 -0.065451
vn 0.000000 0.997856 -0.065451
vn 0.000000 0.997856 -0.065451
vn 0.000000 0.997856 -0.065451
s off
g pPlane1
usemtl initialShadingGroup
f 1/1/1 2/2/2 4/4/3 3/3/4
